<?xml version="1.0" encoding="UTF-8" standalone="no"?>
<!-- Created with Inkscape (http://www.inkscape.org/) -->

<svg
   width="231.20923mm"
   height="103.44073mm"
   viewBox="0 0 231.20923 103.44073"
   version="1.1"
   id="svg26908"
   inkscape:version="1.1 (c68e22c387, 2021-05-23)"
   sodipodi:docname="processo-revisao.svg"
   xmlns:inkscape="http://www.inkscape.org/namespaces/inkscape"
   xmlns:sodipodi="http://sodipodi.sourceforge.net/DTD/sodipodi-0.dtd"
   xmlns="http://www.w3.org/2000/svg"
   xmlns:svg="http://www.w3.org/2000/svg">
  <sodipodi:namedview
     id="namedview26910"
     pagecolor="#ffffff"
     bordercolor="#666666"
     borderopacity="1.0"
     inkscape:pageshadow="2"
     inkscape:pageopacity="0.0"
     inkscape:pagecheckerboard="0"
     inkscape:document-units="mm"
     showgrid="false"
     inkscape:zoom="0.76435185"
     inkscape:cx="406.22653"
     inkscape:cy="79.152029"
     inkscape:window-width="1920"
     inkscape:window-height="1017"
     inkscape:window-x="-8"
     inkscape:window-y="-8"
     inkscape:window-maximized="1"
     inkscape:current-layer="layer1" />
  <defs
     id="defs26905" />
  <g
     inkscape:label="Camada 1"
     inkscape:groupmode="layer"
     id="layer1"
     transform="translate(2.4123103,-127.58732)">
    <g
       id="g26993"
       style="display:inline"
       transform="translate(-51.234732,90.012336)">
      <path
         id="rect6704"
         style="fill:#0d6369;fill-opacity:1;stroke:none;stroke-width:1.05833;stroke-linecap:round"
         d="m 68.870858,113.99318 v 21.77904 l -1.915647,1.91512 c -0.310941,0.31094 -0.310941,0.81199 0,1.12293 l 1.971456,1.97094 c 0.310943,0.31094 0.811471,0.31094 1.122412,0 l 1.971456,-1.97094 c 0.310943,-0.31094 0.310943,-0.81199 0,-1.12293 l -1.91616,-1.91564 v -21.77852 z" />
      <path
         id="rect6704-6"
         style="display:inline;fill:#0d6369;fill-opacity:1;stroke:none;stroke-width:1.05833;stroke-linecap:round"
         d="m 106.84681,76.018654 v 21.77904 l -1.91565,1.91512 c -0.31094,0.310936 -0.31094,0.811986 0,1.122926 l 1.97146,1.97094 c 0.31094,0.31094 0.81147,0.31094 1.12241,0 l 1.97146,-1.97094 c 0.31094,-0.31094 0.31094,-0.81199 0,-1.122926 l -1.91616,-1.91564 v -21.77852 z" />
      <path
         id="rect6704-63"
         style="display:inline;fill:#0d6369;fill-opacity:1;stroke:none;stroke-width:1.05833;stroke-linecap:round"
         d="m 144.82206,113.99381 v 21.77905 l -1.91565,1.91512 c -0.31094,0.31094 -0.31094,0.81199 0,1.12293 l 1.97146,1.97094 c 0.31094,0.31094 0.81147,0.31094 1.12241,0 l 1.97146,-1.97094 c 0.31094,-0.31094 0.31094,-0.81199 0,-1.12293 l -1.91616,-1.91564 v -21.77853 z" />
      <path
         id="rect6704-2"
         style="display:inline;fill:#0d6369;fill-opacity:1;stroke:none;stroke-width:1.05833;stroke-linecap:round"
         d="m 182.79798,76.019343 v 21.77904 l -1.91565,1.91512 c -0.31094,0.310937 -0.31094,0.811987 0,1.122927 l 1.97146,1.97094 c 0.31094,0.31094 0.81147,0.31094 1.12241,0 l 1.97146,-1.97094 c 0.31094,-0.31094 0.31094,-0.81199 0,-1.122927 l -1.91616,-1.91564 v -21.77852 z" />
      <path
         id="rect6704-9"
         style="display:inline;fill:#0d6369;fill-opacity:1;stroke:none;stroke-width:1.05833;stroke-linecap:round"
         d="m 220.77323,113.99449 v 21.77904 l -1.91565,1.91512 c -0.31094,0.31094 -0.31094,0.81199 0,1.12293 l 1.97146,1.97094 c 0.31094,0.31094 0.81147,0.31094 1.12241,0 l 1.97146,-1.97094 c 0.31094,-0.31094 0.31094,-0.81199 0,-1.12293 l -1.91616,-1.91564 v -21.77852 z" />
      <path
         id="rect6704-3"
         style="display:inline;fill:#0d6369;fill-opacity:1;stroke:none;stroke-width:1.05833;stroke-linecap:round"
         d="m 258.74916,76.020337 v 21.779039 l -1.91565,1.91512 c -0.31094,0.310944 -0.31094,0.811994 0,1.122934 l 1.97146,1.97094 c 0.31094,0.31094 0.81147,0.31094 1.12241,0 l 1.97146,-1.97094 c 0.31094,-0.31094 0.31094,-0.81199 0,-1.122934 l -1.91616,-1.91564 V 76.020337 Z" />
      <path
         id="rect859-9-7-0"
         style="fill:#0d6369;fill-opacity:1;stroke:none;stroke-width:1.03903;stroke-linecap:round"
         d="m 86.153226,75.844657 c -4.35369,3.891461 -8.544431,6.008564 -10.136771,5.038605 l -4.484646,-4.484647 c -1.132328,-1.132328 -2.955488,-1.131961 -4.087815,3.65e-4 L 49.671667,94.171308 c -1.132326,1.132326 -1.132328,2.955121 0,4.087449 l 17.772327,17.772323 c 1.132327,1.13233 2.955489,1.1327 4.087815,3.7e-4 L 89.304136,98.259122 c 1.132326,-1.132326 1.132326,-2.955853 0,-4.088179 l -4.484281,-4.484282 c -0.969954,-1.592334 1.147149,-5.783075 5.038604,-10.136771 z" />
      <rect
         style="display:inline;fill:#ffffff;fill-opacity:1;stroke:none;stroke-width:0.845012;stroke-linecap:round"
         id="rect859-9-6-0-8"
         width="25.142096"
         height="25.142096"
         x="104.5986"
         y="6.3279095"
         rx="3.96875"
         ry="3.96875"
         transform="rotate(45)" />
      <path
         id="rect859-9-7-0-5"
         style="fill:#0d6369;fill-opacity:1;stroke:none;stroke-width:1.03903;stroke-linecap:round"
         d="m 242.70085,78.612562 c 4.35369,-3.891461 8.54443,-6.008564 10.13677,-5.038605 l 4.48465,4.484647 c 1.13233,1.132328 2.95549,1.131961 4.08782,-3.65e-4 l 17.77232,-17.772328 c 1.13233,-1.132326 1.13233,-2.955121 0,-4.087449 L 261.41009,38.426134 c -1.13233,-1.132326 -2.95549,-1.13269 -4.08782,-3.64e-4 l -17.77233,17.772327 c -1.13232,1.132326 -1.13232,2.955853 0,4.088179 l 4.48429,4.484282 c 0.96995,1.592334 -1.14715,5.783075 -5.03861,10.136771 z" />
      <rect
         style="display:inline;fill:#ffffff;fill-opacity:1;stroke:none;stroke-width:0.845012;stroke-linecap:round"
         id="rect859-9-6-0-8-2"
         width="25.142096"
         height="25.142096"
         x="-237.1541"
         y="129.64511"
         rx="3.96875"
         ry="3.96875"
         transform="rotate(-135)" />
      <path
         id="rect859-9-2-6"
         style="fill:#0d6369;fill-opacity:1;stroke:none;stroke-width:1.03903;stroke-linecap:round"
         d="m 90.798499,78.611206 c 4.355343,-3.89294 8.547629,-6.010182 10.138601,-5.037507 l 4.48282,4.48282 c 1.13232,1.132326 2.95548,1.132691 4.08781,3.65e-4 l 4.48319,-4.483186 c 1.59096,-0.972667 5.78289,1.144209 10.13823,5.037144 l 3.70523,-3.705233 c -3.89293,-4.355343 -6.00981,-8.547271 -5.03714,-10.138232 l 4.48282,-4.482821 c 1.13232,-1.132326 1.13232,-2.955853 0,-4.088179 L 109.50773,38.424049 c -1.13233,-1.132326 -2.95549,-1.131961 -4.08781,3.65e-4 L 87.647589,56.196742 c -1.132326,1.132326 -1.132327,2.955122 0,4.087449 l 4.483185,4.483185 c 0.972668,1.590963 -1.144575,5.783248 -5.037508,10.138598 z" />
      <rect
         style="display:inline;fill:#ffffff;fill-opacity:1;stroke:none;stroke-width:0.845012;stroke-linecap:round"
         id="rect859-9-6-4-7"
         width="25.142096"
         height="25.142096"
         x="-129.74173"
         y="22.235113"
         rx="3.96875"
         ry="3.96875"
         transform="rotate(-135)" />
      <path
         id="rect859-9-2-6-1"
         style="fill:#0d6369;fill-opacity:1;stroke:none;stroke-width:1.03903;stroke-linecap:round"
         d="m 166.74967,78.611886 c 4.35535,-3.89294 8.54763,-6.010182 10.1386,-5.037507 l 4.48282,4.48282 c 1.13233,1.132326 2.95549,1.132691 4.08782,3.65e-4 l 4.48318,-4.483186 c 1.59096,-0.972667 5.7829,1.144209 10.13823,5.037144 l 3.70524,-3.705233 c -3.89293,-4.355343 -6.00981,-8.547271 -5.03715,-10.138232 l 4.48282,-4.482821 c 1.13233,-1.132326 1.13233,-2.955853 0,-4.088179 L 185.4589,38.424729 c -1.13232,-1.132326 -2.95548,-1.131961 -4.08781,3.65e-4 l -17.77233,17.772328 c -1.13232,1.132326 -1.13232,2.955122 0,4.087449 l 4.48319,4.483185 c 0.97267,1.590963 -1.14458,5.783248 -5.03751,10.138598 z" />
      <rect
         style="display:inline;fill:#ffffff;fill-opacity:1;stroke:none;stroke-width:0.845012;stroke-linecap:round"
         id="rect859-9-6-4-7-5"
         width="25.142096"
         height="25.142096"
         x="-183.4478"
         y="75.940216"
         rx="3.96875"
         ry="3.96875"
         transform="rotate(-135)" />
      <path
         id="rect859-9-2-6-17"
         style="fill:#0d6369;fill-opacity:1;stroke:none;stroke-width:1.03903;stroke-linecap:round"
         d="m 128.77375,75.844978 c 4.35534,3.89294 8.54763,6.010182 10.1386,5.037508 l 4.48282,-4.48282 c 1.13232,-1.132327 2.95548,-1.132691 4.08781,-3.65e-4 l 4.48319,4.483185 c 1.59096,0.972667 5.78289,-1.144209 10.13823,-5.037144 l 3.70523,3.705233 c -3.89293,4.355344 -6.00981,8.547271 -5.03714,10.138233 l 4.48282,4.48282 c 1.13232,1.132326 1.13232,2.955853 0,4.088179 l -17.77233,17.772323 c -1.13233,1.13233 -2.95549,1.13197 -4.08781,-3.6e-4 L 125.62284,98.259442 c -1.13233,-1.132326 -1.13233,-2.955122 0,-4.087449 l 4.48318,-4.483185 c 0.97267,-1.590963 -1.14457,-5.783248 -5.0375,-10.138598 z" />
      <rect
         style="display:inline;fill:#ffffff;fill-opacity:1;stroke:none;stroke-width:0.845012;stroke-linecap:round"
         id="rect859-9-6-4-7-7"
         width="25.142096"
         height="25.142096"
         x="-47.37727"
         y="158.30469"
         rx="3.96875"
         ry="3.96875"
         transform="matrix(-0.70710678,0.70710678,0.70710678,0.70710678,0,0)" />
      <path
         id="rect859-9-2-6-17-7"
         style="fill:#0d6369;fill-opacity:1;stroke:none;stroke-width:1.03903;stroke-linecap:round"
         d="m 204.72493,75.845657 c 4.35534,3.89294 8.54762,6.010182 10.13859,5.037508 l 4.48282,-4.48282 c 1.13233,-1.132326 2.95549,-1.132691 4.08782,-3.65e-4 l 4.48318,4.483186 c 1.59097,0.972667 5.7829,-1.144209 10.13823,-5.037144 l 3.70524,3.705233 c -3.89293,4.355343 -6.00981,8.547271 -5.03715,10.138232 l 4.48282,4.482821 c 1.13233,1.132326 1.13233,2.955853 0,4.088179 l -17.77232,17.772323 c -1.13233,1.13233 -2.95549,1.13197 -4.08782,-3.6e-4 L 201.57402,98.260122 c -1.13233,-1.132326 -1.13233,-2.955122 0,-4.087449 l 4.48318,-4.483186 c 0.97267,-1.590962 -1.14457,-5.783247 -5.03751,-10.138597 z" />
      <rect
         style="display:inline;fill:#ffffff;fill-opacity:1;stroke:none;stroke-width:0.845012;stroke-linecap:round"
         id="rect859-9-6-4-7-7-8"
         width="25.142096"
         height="25.142096"
         x="-101.08238"
         y="212.01076"
         rx="3.96875"
         ry="3.96875"
         transform="matrix(-0.70710678,0.70710678,0.70710678,0.70710678,0,0)" />
      <path
         d="m 115.42272,64.206787 -3.18651,-3.18651 c -0.14382,-0.14382 -0.33878,-0.22373 -0.54333,-0.22373 h -0.52097 c 0.88213,-1.12822 1.40629,-2.54729 1.40629,-4.09101 0,-3.67231 -2.97557,-6.64789 -6.64789,-6.64789 -3.67232,0 -6.647895,2.97558 -6.647895,6.64789 0,3.67232 2.975575,6.64789 6.647895,6.64789 1.54372,0 2.96278,-0.52416 4.09101,-1.40628 v 0.52096 c 0,0.20455 0.0799,0.39952 0.22373,0.54334 l 3.18651,3.18651 c 0.30043,0.30043 0.78624,0.30043 1.08347,0 l 0.9045,-0.9045 c 0.30043,-0.30043 0.30043,-0.78624 0.003,-1.08667 z m -9.49241,-3.41024 c -2.25964,0 -4.09101,-1.82817 -4.09101,-4.09101 0,-2.25964 1.82817,-4.091 4.09101,-4.091 2.25964,0 4.09101,1.82816 4.09101,4.091 0,2.25965 -1.82817,4.09101 -4.09101,4.09101 z"
         id="path8187"
         style="fill:#8c8c8c;fill-opacity:1;stroke-width:0.031961" />
      <path
         d="m 148.50717,91.101938 c 0,-1.69457 -1.37368,-3.06826 -3.06825,-3.06826 -1.69458,0 -3.06826,1.37369 -3.06826,3.06826 0,1.69457 1.37368,3.06825 3.06826,3.06825 1.69457,0 3.06825,-1.37368 3.06825,-3.06825 z m -3.7845,4.63754 c -1.89625,-1.16083 -4.9677,-1.47979 -6.51333,-1.56768 -0.51937,-0.0294 -0.95244,0.36627 -0.95244,0.86582 v 7.120902 c 0,0.45801 0.37043,0.83994 0.84665,0.86455 1.39541,0.0732 4.21853,0.34135 6.16975,1.32415 0.29947,0.15085 0.65456,-0.0547 0.65456,-0.37938 v -7.862092 c -3.6e-4,-0.14926 -0.0742,-0.28605 -0.20519,-0.36627 z m 7.94582,-1.56768 c -1.54531,0.0876 -4.61708,0.40685 -6.51301,1.56768 -0.13104,0.0802 -0.20487,0.22245 -0.20487,0.37171 v 7.855692 c 0,0.32568 0.35605,0.53151 0.65648,0.38034 1.9509,-0.98184 4.77242,-1.25 6.16751,-1.32319 0.47622,-0.0249 0.84665,-0.40686 0.84665,-0.86486 v -7.121552 c -3.7e-4,-0.49955 -0.43339,-0.89523 -0.95276,-0.86582 z"
         id="path8196"
         style="fill:#8c8c8c;fill-opacity:1;stroke-width:0.031961" />
      <path
         d="m 190.57426,52.396857 v 1.46107 c 0,1.28758 -3.20674,2.33772 -7.15927,2.33772 -3.95252,0 -7.15926,-1.05014 -7.15926,-2.33772 v -1.46107 c 0,-1.28758 3.20674,-2.33772 7.15926,-2.33772 3.95253,0 7.15927,1.05014 7.15927,2.33772 z m 0,3.28741 v 3.28741 c 0,1.28758 -3.20674,2.33773 -7.15927,2.33773 -3.95252,0 -7.15926,-1.05015 -7.15926,-2.33773 v -3.28741 c 1.53812,1.05929 4.35334,1.55241 7.15926,1.55241 2.80592,0 5.62111,-0.49312 7.15927,-1.55241 z m 0,5.11376 v 3.28742 c 0,1.28758 -3.20674,2.33772 -7.15927,2.33772 -3.95252,0 -7.15926,-1.05014 -7.15926,-2.33772 v -3.28742 c 1.53812,1.05929 4.35334,1.55241 7.15926,1.55241 2.80592,0 5.62111,-0.49312 7.15927,-1.55241 z"
         id="path8205"
         style="fill:#8c8c8c;fill-opacity:1;stroke-width:0.031961" />
      <path
         d="m 218.8348,102.55571 c 3.1e-4,0.20103 0.0598,0.39791 0.17131,0.56539 l 0.54621,0.82107 a 1.0224323,1.0224323 0 0 0 0.85145,0.45641 h 1.97231 a 1.0224323,1.0224323 0 0 0 0.85144,-0.45641 l 0.54621,-0.82107 a 1.0224004,1.0224004 0 0 0 0.17132,-0.56539 l 0.001,-1.22571 h -5.11312 z m -3.07017,-8.896344 c 0,1.41812 0.52576,2.71189 1.39222,3.700436 0.52799,0.60247 1.35387,1.8611 1.66868,2.922838 0.001,0.008 0.002,0.0166 0.004,0.0249 h 5.12143 c 0.001,-0.008 0.002,-0.0163 0.004,-0.0249 0.31482,-1.061738 1.1407,-2.320368 1.66869,-2.922838 0.86646,-0.988546 1.39222,-2.282316 1.39222,-3.700436 0,-3.11268 -2.5278,-5.63472 -5.64271,-5.62513 -3.26034,0.01 -5.60756,2.6518 -5.60756,5.62513 z m 5.62513,-2.55688 c -1.4098,0 -2.55687,1.14708 -2.55687,2.55688 0,0.28254 -0.22885,0.51138 -0.51138,0.51138 -0.28254,0 -0.51138,-0.22884 -0.51138,-0.51138 0,-1.97391 1.60572,-3.57963 3.57963,-3.57963 0.28254,0 0.51138,0.22884 0.51138,0.51138 0,0.28254 -0.22884,0.51137 -0.51138,0.51137 z"
         id="path8214"
         style="fill:#8c8c8c;fill-opacity:1;stroke-width:0.031961" />
      <path
         d="m 70.510624,92.379709 v -4.346692 h -6.392198 c -0.425081,0 -0.767064,0.341983 -0.767064,0.767063 v 14.8299 c 0,0.42508 0.341983,0.76707 0.767064,0.76707 h 10.738898 c 0.42508,0 0.76706,-0.34199 0.76706,-0.76707 V 93.146769 h -4.3467 c -0.42188,0 -0.76706,-0.34518 -0.76706,-0.76706 z m 2.0455,7.5428 c 0,0.210941 -0.17258,0.383531 -0.38353,0.383531 h -5.369445 c -0.210942,0 -0.383532,-0.17259 -0.383532,-0.383531 v -0.25569 c 0,-0.21095 0.17259,-0.38354 0.383532,-0.38354 h 5.369445 c 0.21095,0 0.38353,0.17259 0.38353,0.38354 z m 0,-2.04551 c 0,0.21095 -0.17258,0.38353 -0.38353,0.38353 h -5.369445 c -0.210942,0 -0.383532,-0.17258 -0.383532,-0.38353 v -0.25568 c 0,-0.21095 0.17259,-0.38354 0.383532,-0.38354 h 5.369445 c 0.21095,0 0.38353,0.17259 0.38353,0.38354 z m 0,-2.30119 v 0.25569 c 0,0.21094 -0.17258,0.38353 -0.38353,0.38353 h -5.369445 c -0.210942,0 -0.383532,-0.17259 -0.383532,-0.38353 v -0.25569 c 0,-0.21094 0.17259,-0.38353 0.383532,-0.38353 h 5.369445 c 0.21095,0 0.38353,0.17259 0.38353,0.38353 z m 3.06826,-3.64675 v 0.19496 h -4.09101 v -4.091002 h 0.19497 c 0.20455,0 0.39951,0.0799 0.54333,0.223723 l 3.12898,3.132179 c 0.14383,0.14382 0.22373,0.33878 0.22373,0.54014 z"
         id="path8223"
         style="fill:#8c8c8c;fill-opacity:1;stroke-width:0.031961" />
      <path
         d="m 265.61025,53.956222 c 0,-0.20135 -0.0799,-0.39632 -0.22372,-0.54014 l -3.12898,-3.13218 c -0.14383,-0.14382 -0.33879,-0.22372 -0.54335,-0.22372 h -0.19496 v 4.091 h 4.09101 z m 5.97671,5.94794 -3.05867,-3.08104 c -0.3228,-0.3228 -0.87573,-0.0959 -0.87573,0.36116 v 2.08066 h -2.04551 v 2.04551 h 2.04551 v 2.08385 c 0,0.45704 0.55293,0.68397 0.87573,0.36116 l 3.05867,-3.08424 c 0.21094,-0.21094 0.21094,-0.55612 0,-0.76706 z m -12.11322,0.89491 v -1.02275 c 0,-0.28126 0.23012,-0.51138 0.51138,-0.51138 h 5.62513 v -4.091 h -4.34669 c -0.42189,0 -0.76707,-0.34518 -0.76707,-0.76707 v -4.34669 h -6.3922 c -0.42508,0 -0.76706,0.34198 -0.76706,0.76706 v 14.8299 c 0,0.42509 0.34198,0.76706 0.76706,0.76706 h 10.7389 c 0.42508,0 0.76706,-0.34197 0.76706,-0.76706 v -4.34669 h -5.62513 c -0.28126,0 -0.51138,-0.23012 -0.51138,-0.51138 z"
         id="path8232"
         style="fill:#8c8c8c;fill-opacity:1;stroke-width:0.031961" />
    </g>
  </g>
</svg>
